/* XPM */
static char * aqremote_xpm[] = {
"22 22 4 1",
" 	c None",
".	c #606060",
"+	c #5F5F5F",
"@	c #616161",
"                      ",
"                      ",
"                      ",
"                 ..   ",
"                ...   ",
"               ...    ",
"              ...     ",
"         ...+ ..      ",
"         .....        ",
"       .  ....@       ",
"      ..@ .....       ",
"      ...+ +...       ",
"      ..... @..       ",
"      +....  .        ",
"       .....          ",
"     .. ...@          ",
"    ...               ",
"   ...                ",
"  ...                 ",
"  ..                  ",
"                      ",
"                      "};
